<?xml version="1.0" encoding="iso-8859-1"?><!-- Generator: Adobe Illustrator 19.0.0, SVG Export Plug-In . SVG Version: 6.00 Build 0)  -->
<svg style="enable-background:new 0 0 470.767 470.767;" id="Layer_1" version="1.1" viewBox="0 0 470.767 470.767" x="0px"
    xmlns="http://www.w3.org/2000/svg" y="0px"
    xml:space="preserve">
	<g>
		<path d="M442.216,103.923l-49.969-4.997c-0.268-0.027-0.506-0.037-0.743-0.039c-0.034-0.002-20.034-0.002-20.034-0.002
			c-2.061,0-3.845-0.739-5.303-2.197c-1.478-1.478-2.196-3.212-2.196-5.305L363.971,75c0-41.355-33.644-75-74.999-75
			s-75,33.645-75,75v79.374c-10.691,3.227-18.5,13.163-18.5,24.893c0,11.73,7.809,21.665,18.5,24.893v17.215
			c-10.691,3.227-18.5,13.163-18.5,24.893c0,11.73,7.809,21.665,18.5,24.893v17.215c-10.691,3.227-18.5,13.163-18.5,24.893
			c0,11.73,7.809,21.665,18.5,24.893v35.107c0,9.649-7.851,17.5-17.5,17.5s-17.5-7.851-17.5-17.5V267.553
			c0-65.99-53.686-119.676-119.674-119.676h-22.5v-2.5c0-4.142-3.358-7.5-7.5-7.5c-4.142,0-7.5,3.358-7.5,7.5v142.176
			c0,4.142,3.358,7.5,7.5,7.5c4.142,0,7.5-3.358,7.5-7.5v-2.5h22.5c12.407,0,22.5,10.094,22.5,22.5v59.627
			c0,57.118,46.469,103.587,103.587,103.587c57.118,0,103.586-46.469,103.586-103.586v-46.414h2.5c4.142,0,7.5-3.358,7.5-7.5
			c0-4.142-3.358-7.5-7.5-7.5h-2.5v-18.5h2.5c4.142,0,7.5-3.358,7.5-7.5c0-4.142-3.358-7.5-7.5-7.5h-2.5v-18.5h2.5
			c4.142,0,7.5-3.358,7.5-7.5c0-4.142-3.358-7.5-7.5-7.5h-2.5v-52h2.5c4.142,0,7.5-3.358,7.5-7.5c0-4.142-3.358-7.5-7.5-7.5h-2.5
			v-12.5c0-4.142-3.358-7.5-7.5-7.5c-4.142,0-7.5,3.358-7.5,7.5v12.5h-27.607c-2.51-8.315-9.078-14.883-17.393-17.393V75
			c0-33.084,26.916-60,60-60c33.083,0,59.999,26.916,59.999,60.001l0.001,16.382c0,6.099,2.278,11.602,6.589,15.912
			c4.311,4.312,9.813,6.591,15.91,6.591h12.5v15h-12.5c-10.017,0-19.434-3.9-26.516-10.983c-7.083-7.083-10.984-16.5-10.983-26.518
			l-0.001-20.692c0-16.542-13.458-30-29.999-30c-16.542,0-30,13.458-30,30v21.074h-22.5c-4.142,0-7.5,3.358-7.5,7.5v30
			c0,4.142,3.358,7.5,7.5,7.5h40c4.142,0,7.5-3.358,7.5-7.5c0-4.142-3.358-7.5-7.5-7.5h-2.5v-15h2.5c4.142,0,7.5-3.358,7.5-7.5
			c0-4.142-3.358-7.5-7.5-7.5h-2.5V70.693c0-8.271,6.729-15,15-15s14.999,6.729,14.999,15l0.001,20.691
			c-0.001,14.023,5.459,27.208,15.376,37.125c9.915,9.916,23.099,15.377,37.123,15.377h20c0.249,0,0.499-0.012,0.746-0.037
			c0.03-0.003,50-5,50-5c3.834-0.383,6.754-3.61,6.754-7.463v-20C448.971,107.533,446.05,104.307,442.216,103.923z M210.471,246.267
			c0-6.065,4.935-11,11-11c3.177,0,6.035,1.362,8.045,3.523c-3.929,0.236-7.045,3.489-7.045,7.477c0,3.988,3.116,7.241,7.045,7.477
			c-2.01,2.161-4.868,3.523-8.045,3.523C215.406,257.267,210.471,252.333,210.471,246.267z M246.364,253.767h27.607v52h-27.607
			c-2.51-8.315-9.078-14.883-17.393-17.393V271.16C237.286,268.65,243.854,262.082,246.364,253.767z M210.471,313.267
			c0-6.064,4.932-10.997,10.995-11c3.185,0.001,6.041,1.363,8.05,3.523c-3.929,0.236-7.045,3.489-7.045,7.477
			s3.116,7.241,7.045,7.477c-2.01,2.161-4.868,3.523-8.045,3.523C215.406,324.267,210.471,319.333,210.471,313.267z
			 M152.971,320.767c-3.93,0-7.657,0.881-11,2.449v-19.898c3.343,1.568,7.07,2.449,11,2.449s7.657-0.881,11-2.449v19.898
			C160.628,321.648,156.901,320.767,152.971,320.767z M163.971,346.767c0,6.065-4.935,11-11,11s-11-4.935-11-11s4.935-11,11-11
			S163.971,340.702,163.971,346.767z M152.971,290.767c-6.065,0-11-4.935-11-11s4.935-11,11-11s11,4.935,11,11
			S159.037,290.767,152.971,290.767z M273.972,365.767L273.972,365.767h-22.501c-4.142,0-7.5,3.358-7.5,7.5
			c0,4.142,3.358,7.5,7.5,7.5h21.459c-6.557,42.42-43.317,75-87.545,75c-48.847,0-88.587-39.74-88.587-88.587v-59.627
			c0-20.678-16.822-37.5-37.5-37.5h-22.5V162.877h22.5c53.786,0,98.219,40.781,104.024,93.045c-3.174-1.383-6.673-2.155-10.35-2.155
			c-14.336,0-26,11.664-26,26v26h-7.674c-4.142,0-7.5,3.358-7.5,7.5c0,4.142,3.358,7.5,7.5,7.5h7.674v26c0,14.336,11.664,26,26,26
			c3.93,0,7.657-0.881,11-2.449v2.949c0,17.92,14.58,32.5,32.5,32.5s32.5-14.58,32.5-32.5V338.16
			c8.315-2.51,14.883-9.078,17.393-17.393h27.607V365.767z M246.364,186.767h27.607v52h-27.607
			c-2.51-8.315-9.078-14.883-17.393-17.393V204.16C237.286,201.65,243.854,195.082,246.364,186.767z M229.516,171.79
			c-3.929,0.236-7.045,3.489-7.045,7.477c0,3.988,3.116,7.241,7.045,7.477c-2.01,2.161-4.868,3.523-8.045,3.523
			c-6.065,0-11-4.935-11-11s4.935-11,11-11C224.648,168.267,227.506,169.629,229.516,171.79z M273.971,121.767h-15v-15h15V121.767z
			 M433.971,124.599l-35,3.5v-13.425l35,3.5V124.599z" fill="white" stroke="none" />
	</g>
</svg>
